<?xml version="1.0" encoding="UTF-8" standalone="no"?>
<!-- Created with Inkscape (http://www.inkscape.org/) -->

<svg
   xmlns:dc="http://purl.org/dc/elements/1.1/"
   xmlns:cc="http://creativecommons.org/ns#"
   xmlns:rdf="http://www.w3.org/1999/02/22-rdf-syntax-ns#"
   xmlns:svg="http://www.w3.org/2000/svg"
   xmlns="http://www.w3.org/2000/svg"
   xmlns:sodipodi="http://sodipodi.sourceforge.net/DTD/sodipodi-0.dtd"
   xmlns:inkscape="http://www.inkscape.org/namespaces/inkscape"
   width="210mm"
   height="297mm"
   viewBox="0 0 210 297"
   version="1.1"
   id="svg8"
   inkscape:version="0.92.3 (2405546, 2018-03-11)"
   sodipodi:docname="Logo.svg">
  <defs
     id="defs2" />
  <sodipodi:namedview
     id="base"
     pagecolor="#ffffff"
     bordercolor="#666666"
     borderopacity="1.0"
     inkscape:pageopacity="0.0"
     inkscape:pageshadow="2"
     inkscape:zoom="0.35"
     inkscape:cx="400"
     inkscape:cy="560"
     inkscape:document-units="mm"
     inkscape:current-layer="layer1"
     showgrid="false"
     inkscape:window-width="1366"
     inkscape:window-height="745"
     inkscape:window-x="-8"
     inkscape:window-y="-8"
     inkscape:window-maximized="1" />
  <metadata
     id="metadata5">
    <rdf:RDF>
      <cc:Work
         rdf:about="">
        <dc:format>image/svg+xml</dc:format>
        <dc:type
           rdf:resource="http://purl.org/dc/dcmitype/StillImage" />
        <dc:title></dc:title>
      </cc:Work>
    </rdf:RDF>
  </metadata>
  <g
     inkscape:label="Capa 1"
     inkscape:groupmode="layer"
     id="layer1">
    <path
       id="path3727"
       d="m 47.65335,200.36025 c -0.384263,2.81369 -0.298615,5.66141 -0.280578,8.49285 0.07722,2.30616 0.109924,4.61277 0.179988,6.91923 0.0851,1.71984 0.05207,3.43928 0.03608,5.15952 -0.02027,1.65777 -0.200393,2.24073 0.575664,3.6626 1.627743,2.05488 3.362659,4.0159 5.067467,6.01362 2.765372,3.38101 6.375694,5.78371 9.964721,8.18672 0.711857,0.4297 1.442374,0.8299 2.135572,1.28909 2.339072,1.54944 4.585456,3.21953 6.988944,4.67898 1.860664,1.12984 3.231134,1.8155 5.147252,2.8248 4.016761,2.04008 8.305832,3.43775 12.766455,4.03833 2.630834,0.25973 5.277649,0.13908 7.915344,0.0971 2.405551,-0.0776 4.811861,-0.076 7.218241,-0.0534 1.8845,0.17135 3.71192,-0.32522 5.44084,-1.0365 0.45379,-0.18669 0.93184,-0.33282 1.34609,-0.59582 0.43758,-0.27781 0.78843,-0.67306 1.18264,-1.00958 14.35855,-9.17179 2.02722,-1.26452 -38.432906,22.08208 -0.48246,0.2784 0.981778,-0.52887 1.45008,-0.8305 1.584767,-1.02063 3.043926,-2.2516 4.501441,-3.44088 3.348154,-2.63938 5.478693,-6.23973 7.595478,-9.85337 1.996668,-3.4694 3.308758,-7.26385 4.416941,-11.09332 0.78418,-3.06643 1.106157,-6.22418 1.660073,-9.33621 0.680553,-3.4434 1.500042,-6.85493 2.002435,-10.33084 0.328615,-3.11376 0.512014,-6.23767 0.856084,-9.35039 0.573463,-2.84719 0.817938,-5.74376 0.997259,-8.63816 0.105749,-2.81469 0.15889,-5.63559 0.136747,-8.45234 0.06833,-3.44108 0.520306,-6.84337 1.017826,-10.24204 0.781072,-3.84716 1.118862,-7.75757 1.347102,-11.67019 0.0798,-4.15703 0.17004,-8.3116 0.42648,-12.46198 0.30282,-3.97561 0.35621,-7.96398 0.36978,-11.94934 -0.0499,-3.31853 -0.0974,-6.63725 -0.0467,-9.95646 -0.022,-3.07039 -0.0712,-6.14053 -0.0786,-9.21146 -0.0817,-2.6525 -0.066,-5.30457 -0.0602,-7.95781 0.0353,-2.8875 0.0211,-5.7757 0.0957,-8.6625 0.0284,-3.48 0.0589,-6.95968 0.12327,-10.43928 -0.0165,-3.2629 -0.14641,-6.52047 -0.14158,-9.783566 -0.0408,-2.855193 -0.13016,-5.72041 -0.70048,-8.522856 -0.7153,-2.87083 -1.144305,-5.796129 -1.51619,-8.728289 -0.09184,-1.485966 -0.366408,-2.942426 -0.62833,-4.40464 0,0 43.50641,-22.949546 43.50641,-22.949546 v 0 c 0.16858,1.627061 0.56325,3.2385 0.50888,4.877041 0.0172,2.783329 0.23459,5.55784 0.8646,8.277349 0.25927,1.148223 0.63484,2.270601 0.84482,3.428852 0.087,0.479938 0.0668,0.973386 0.11508,1.458751 0.14907,1.498272 0.45779,2.99189 0.29624,4.505452 0.005,3.311099 -0.12563,6.616933 -0.14157,9.927844 0.0648,3.437728 0.0948,6.875552 0.12324,10.313696 0.0757,2.854235 0.0597,5.709972 0.0956,8.564932 0.006,2.673 0.0207,5.34479 -0.0589,8.01713 -0.006,3.09605 -0.0519,6.19136 -0.0702,9.2869 0.0545,3.36688 0.009,6.73346 -0.10145,10.09854 -0.0828,4.07754 -0.19704,8.15383 -0.38797,12.22808 -0.2563,4.12412 -0.54699,8.23426 -0.49642,12.37091 -0.0774,4.0417 -0.25792,8.08453 -0.86745,12.08676 -0.55381,3.10922 -0.85962,6.2514 -1.07056,9.40282 -0.0249,2.88408 0.0344,5.76851 -0.0572,8.65287 -0.0862,3.05101 -0.33565,6.08688 -0.75018,9.11196 -0.63877,3.08262 -0.94201,6.2288 -1.17515,9.36509 -0.40754,3.56463 -1.00068,7.09864 -1.82118,10.59026 -0.69132,3.1951 -0.88026,6.48626 -1.56724,9.68665 -1.0834,4.19153 -2.69357,8.21775 -4.22639,12.26096 -2.26558,4.3832 0.2649,-0.41679 -2.15839,3.88803 -1.42081,2.524 -2.5719,5.18152 -4.64566,7.27882 -1.31558,1.40187 -2.69715,2.63527 -4.13255,3.90992 -13.2771,11.79027 -29.978274,19.05778 -45.88731,26.88677 -3.15211,0.81616 -6.301213,1.19063 -9.563221,1.04651 -2.421353,0.0424 -4.843926,0.0906 -7.265051,0.0114 -2.770963,-0.0885 -5.5558,-0.29736 -8.20021,-1.19922 -4.430606,-1.4605 -8.677063,-3.38772 -12.724566,-5.71368 -4.92165,-2.95418 -9.922751,-5.77352 -14.675559,-8.99964 -3.929859,-2.69146 -8.034797,-5.244 -11.349589,-8.70446 -1.9827136,-2.10857 -3.935628,-4.2453 -5.8131854,-6.4504 -1.4684028,-1.99674 -2.3102543,-3.53934 -2.0615452,-6.07538 -0.016259,-1.73248 -0.047831,-3.46415 0.036078,-5.19629 0.069763,-2.3676 0.1032674,-4.73534 0.1799894,-7.10265 0.017312,-2.73522 0.1201746,-5.49203 -0.2805782,-8.20693 0,0 43.9019384,-22.36915 43.9019384,-22.36915 z"
       inkscape:connector-curvature="0"
       style="stroke-width:0.26458332" />
    <path
       id="path3729"
       d="m 62.928748,43.615485 c 3.695054,0.510434 7.259016,1.651056 10.929675,2.340933 7.631377,1.370579 15.279455,2.619026 22.911554,3.996449 8.847543,1.450451 17.701023,2.830116 26.575483,4.109495 4.87678,0.976135 9.77343,1.9114 14.61801,3.037676 1.94873,0.453046 3.87403,1.003075 5.82227,1.458243 3.99599,1.143312 8.09233,1.76888 12.23844,1.9295 3.521,0.604735 7.09863,0.707774 10.66019,0.858124 4.65338,0.194005 9.30846,0.09525 13.96318,0.05433 3.35217,-0.144619 6.70393,-0.172974 10.05832,-0.162097 2.71218,-0.02477 5.42409,-0.08389 8.1364,-0.08755 2.18591,-0.0052 4.37133,-0.03654 6.55696,-0.07329 0,0 -39.71865,28.857225 -39.71865,28.857225 v 0 c -2.11819,-0.0374 -4.23614,-0.06867 -6.35463,-0.0732 -2.63244,-0.0032 -5.26448,-0.06118 -7.89682,-0.08314 -3.21526,0.01439 -6.42813,0.0033 -9.64095,-0.149823 -4.6845,-0.04981 -9.3685,-0.148103 -14.05323,-0.177964 -3.77746,-0.09044 -7.53413,-0.385879 -11.28285,-0.867706 -4.00103,-0.726023 -7.87479,-1.906998 -11.75386,-3.11779 C 98.348076,83.639267 91.975653,81.822554 85.460286,80.68048 76.663845,79.129328 67.835139,77.738033 58.997037,76.446662 51.052465,75.207026 43.089189,74.073834 35.098235,73.177148 c -4.008037,-0.553715 -8.053038,-1.073185 -12.094368,-0.55454 0,0 39.924881,-29.007123 39.924881,-29.007123 z"
       inkscape:connector-curvature="0"
       style="stroke-width:0.26458332" />
    <path
       id="path3731"
       d="m 97.702557,160.7881 c 4.555553,1.80534 9.440583,2.43763 14.278733,2.99527 7.15587,0.7091 14.32034,1.16416 21.50817,1.33112 6.02214,0.0781 12.04348,0.004 18.06609,0.0515 5.64907,0.0748 11.29997,-0.0232 16.9476,-0.15829 3.90254,-0.0748 7.80638,-0.16447 11.70989,-0.15558 2.98607,0.015 5.97052,-0.11132 8.95599,-0.13656 1.58773,-0.083 3.27088,-0.19226 4.79759,-0.69232 0.83133,-0.27229 1.63028,-0.63644 2.45797,-0.9196 1.74664,-0.6366 3.12517,-1.93115 4.77983,-2.74692 0,0 -38.27509,30.74479 -38.27509,30.74479 v 0 c -1.61342,0.90705 -3.37723,1.36388 -5.18418,1.72687 -2.65536,0.56019 -5.3858,0.70249 -8.09433,0.59876 -2.85995,-0.0248 -5.71881,-0.15419 -8.57944,-0.13625 -3.76293,0.009 -7.52623,-0.075 -11.28823,-0.14694 -5.51678,-0.13223 -11.03667,-0.20973 -16.55484,-0.1427 -5.95203,0.0235 -11.89849,-0.0876 -17.841646,-0.43823 -7.214214,-0.4186 -14.418302,-0.97371 -21.612958,-1.64922 -3.38464,-0.34927 -6.762982,-0.74836 -10.147456,-1.0986 -1.954061,-0.20222 -2.654786,-0.36173 -4.507243,-0.22698 -0.45121,0.0328 -0.89422,0.138 -1.341331,0.207 0,0 39.924881,-29.00713 39.924881,-29.00713 z"
       inkscape:connector-curvature="0"
       style="stroke-width:0.26458332" />
  </g>
</svg>
